<svg xmlns="http://www.w3.org/2000/svg" viewBox="0 0 1916 1086" width="1916" height="1086" role="img" data-concept="fabric-platform" data-representation="layered">
<title>Unified data platform — layered architecture</title><desc>One shared lake underneath; every workload sits at its own height above it. SYNTHETIC illustration of a Fabric-like platform. Generic names, no logos; not a vendor reference architecture or a real tenant.</desc>
<defs><marker id="arrow-data" viewBox="0 0 10 10" refX="8.5" refY="5" markerWidth="7" markerHeight="7" orient="auto-start-reverse"><path d="M0 1 L9 5 L0 9z" fill="#4f7482"/></marker><marker id="arrow-control" viewBox="0 0 10 10" refX="8.5" refY="5" markerWidth="7" markerHeight="7" orient="auto-start-reverse"><path d="M0 1 L9 5 L0 9z" fill="#a0835a"/></marker><marker id="arrow-auth" viewBox="0 0 10 10" refX="8.5" refY="5" markerWidth="7" markerHeight="7" orient="auto-start-reverse"><path d="M0 1 L9 5 L0 9z" fill="#7d68a8"/></marker><pattern id="water" width="36" height="12" patternUnits="userSpaceOnUse"><path d="M0 8 Q9 3 18 8 T36 8" fill="none" stroke="#ffffff" stroke-opacity=".55" stroke-width="1.2"/></pattern></defs>
<rect width="1916" height="1086" fill="#f4f1ea"/>
<text data-text="tag" x="1880" y="22" text-anchor="end" font-family="Inter,Segoe UI,system-ui,sans-serif" font-size="10" letter-spacing="1.2" fill="#6a7a84">SYNTHETIC · CONCEPT SPEC</text>
<text data-text="title" x="36" y="46" font-family="Inter,Segoe UI,system-ui,sans-serif" font-size="24" font-weight="650" fill="#24333d">Unified data platform</text>
<text data-text="subtitle" x="36" y="70" font-family="Inter,Segoe UI,system-ui,sans-serif" font-size="13" fill="#6a7a84">One shared lake underneath; every workload sits at its own height above it.</text>
<g data-domain="sources" data-placement="main"><rect x="216" y="96" width="380" height="922" rx="14" fill="#ffffff" fill-opacity=".5"/><text data-text="domain" x="406" y="112" text-anchor="middle" font-family="Inter,Segoe UI,system-ui,sans-serif" font-size="10.5" font-weight="600" letter-spacing="1.3" fill="#6a7a84">EXTERNAL SOURCES</text></g>
<g data-domain="sales" data-placement="main"><rect x="608" y="96" width="414" height="922" rx="14" fill="#ffffff" fill-opacity=".28"/><text data-text="domain" x="815" y="112" text-anchor="middle" font-family="Inter,Segoe UI,system-ui,sans-serif" font-size="10.5" font-weight="600" letter-spacing="1.3" fill="#6a7a84">SALES DOMAIN</text></g>
<g data-domain="ops" data-placement="main"><rect x="1034" y="96" width="414" height="922" rx="14" fill="#ffffff" fill-opacity=".5"/><text data-text="domain" x="1241" y="112" text-anchor="middle" font-family="Inter,Segoe UI,system-ui,sans-serif" font-size="10.5" font-weight="600" letter-spacing="1.3" fill="#6a7a84">OPERATIONS DOMAIN</text></g>
<g data-domain="platform" data-placement="main"><rect x="1460" y="96" width="414" height="922" rx="14" fill="#ffffff" fill-opacity=".28"/><text data-text="domain" x="1667" y="112" text-anchor="middle" font-family="Inter,Segoe UI,system-ui,sans-serif" font-size="10.5" font-weight="600" letter-spacing="1.3" fill="#6a7a84">PLATFORM</text></g>
<g data-layer="lake"><rect x="24" y="874" width="1868" height="138" rx="12" fill="#7fa9b5" fill-opacity=".12"/><rect x="24" y="874" width="4" height="138" rx="2" fill="#7fa9b5"/><text data-text="layer" x="40" y="938.8" font-family="Inter,Segoe UI,system-ui,sans-serif" font-size="13.5" font-weight="650" fill="#24333d">Shared lake</text><text data-text="layer-role" x="40" y="955.8" font-family="Inter,Segoe UI,system-ui,sans-serif" font-size="9.5" letter-spacing="1.2" fill="#6a7a84">STORAGE · BOTTOM</text></g>
<g data-layer="items"><rect x="24" y="724" width="1868" height="138" rx="12" fill="#8fb2a6" fill-opacity=".12"/><rect x="24" y="724" width="4" height="138" rx="2" fill="#8fb2a6"/><text data-text="layer" x="40" y="788.8" font-family="Inter,Segoe UI,system-ui,sans-serif" font-size="13.5" font-weight="650" fill="#24333d">Data items</text><text data-text="layer-role" x="40" y="805.8" font-family="Inter,Segoe UI,system-ui,sans-serif" font-size="9.5" letter-spacing="1.2" fill="#6a7a84">DATA · L1</text></g>
<g data-layer="engines"><rect x="24" y="574" width="1868" height="138" rx="12" fill="#a7b98f" fill-opacity=".12"/><rect x="24" y="574" width="4" height="138" rx="2" fill="#a7b98f"/><text data-text="layer" x="40" y="638.8" font-family="Inter,Segoe UI,system-ui,sans-serif" font-size="13.5" font-weight="650" fill="#24333d">Engines</text><text data-text="layer-role" x="40" y="655.8" font-family="Inter,Segoe UI,system-ui,sans-serif" font-size="9.5" letter-spacing="1.2" fill="#6a7a84">COMPUTE · L2</text></g>
<g data-layer="models"><rect x="24" y="424" width="1868" height="138" rx="12" fill="#d2b071" fill-opacity=".12"/><rect x="24" y="424" width="4" height="138" rx="2" fill="#d2b071"/><text data-text="layer" x="40" y="488.8" font-family="Inter,Segoe UI,system-ui,sans-serif" font-size="13.5" font-weight="650" fill="#24333d">Models &amp; endpoints</text><text data-text="layer-role" x="40" y="505.8" font-family="Inter,Segoe UI,system-ui,sans-serif" font-size="9.5" letter-spacing="1.2" fill="#6a7a84">SERVING · L3</text></g>
<g data-layer="apps"><rect x="24" y="274" width="1868" height="138" rx="12" fill="#d39a7c" fill-opacity=".12"/><rect x="24" y="274" width="4" height="138" rx="2" fill="#d39a7c"/><text data-text="layer" x="40" y="338.8" font-family="Inter,Segoe UI,system-ui,sans-serif" font-size="13.5" font-weight="650" fill="#24333d">Reports &amp; apps</text><text data-text="layer-role" x="40" y="355.8" font-family="Inter,Segoe UI,system-ui,sans-serif" font-size="9.5" letter-spacing="1.2" fill="#6a7a84">EXPERIENCE · L4</text></g>
<g data-layer="people"><rect x="24" y="124" width="1868" height="138" rx="12" fill="#8e9fb2" fill-opacity=".12"/><rect x="24" y="124" width="4" height="138" rx="2" fill="#8e9fb2"/><text data-text="layer" x="40" y="188.8" font-family="Inter,Segoe UI,system-ui,sans-serif" font-size="13.5" font-weight="650" fill="#24333d">People</text><text data-text="layer-role" x="40" y="205.8" font-family="Inter,Segoe UI,system-ui,sans-serif" font-size="9.5" letter-spacing="1.2" fill="#6a7a84">USERS · TOP</text></g>
<g data-flows=""><g data-flow="e-erp-copy" data-from="erp-db" data-to="ingest-pipeline" data-kind="data"><title>ERP database → Nightly copy: Changed rows</title><path d="M308,755 L308,703 Q308,693 318,693 L719,693 Q725,693 725,687 L725,681" fill="none" stroke="#4f7482" stroke-width="1.5" stroke-opacity="1" marker-end="url(#arrow-data)"/><rect x="477.1" y="685.5" width="78.8" height="15" rx="7.5" fill="#f4f1ea"/><text data-text="flow" x="516.5" y="696.4" text-anchor="middle" font-family="Inter,Segoe UI,system-ui,sans-serif" font-size="9.5" fill="#46636e">Changed rows</text></g><g data-flow="e-copy-land" data-from="ingest-pipeline" data-to="sales-lakehouse" data-kind="data"><title>Nightly copy → Sales lakehouse: Land raw</title><path d="M743,681 L743,695.1 Q743,704.1 734,704.1 L734,704.1 Q725,704.1 725,713.1 L725,755" fill="none" stroke="#4f7482" stroke-width="1.5" stroke-opacity="1" marker-end="url(#arrow-data)"/><rect x="696.4" y="722.1" width="57.1" height="15" rx="7.5" fill="#f4f1ea"/><text data-text="flow" x="725" y="733" text-anchor="middle" font-family="Inter,Segoe UI,system-ui,sans-serif" font-size="9.5" fill="#46636e">Land raw</text></g><g data-flow="e-lh-clean" data-from="sales-lakehouse" data-to="clean-notebook" data-kind="data"><title>Sales lakehouse → Cleaning notebook: Read raw</title><path d="M743,755 L743,719.7 Q743,709.7 753,709.7 L911,709.7 Q921,709.7 921,699.7 L921,681" fill="none" stroke="#4f7482" stroke-width="1.5" stroke-opacity="1" marker-end="url(#arrow-data)"/><rect x="803.4" y="702.2" width="57.1" height="15" rx="7.5" fill="#f4f1ea"/><text data-text="flow" x="832" y="713.1" text-anchor="middle" font-family="Inter,Segoe UI,system-ui,sans-serif" font-size="9.5" fill="#46636e">Read raw</text></g><g data-flow="e-clean-wh" data-from="clean-notebook" data-to="sales-warehouse" data-kind="data"><title>Cleaning notebook → Sales warehouse: Write gold</title><path d="M939,681 L939,716.3 Q939,720.8 934.5,720.8 L934.5,720.8 Q930,720.8 930,725.3 L930,755" fill="none" stroke="#4f7482" stroke-width="1.5" stroke-opacity="1" marker-end="url(#arrow-data)"/></g><g data-flow="e-wh-model" data-from="sales-warehouse" data-to="sales-model" data-kind="data"><title>Sales warehouse → Sales model: Star schema</title><path d="M912,755 L912,725.2 Q912,715.2 902,715.2 L842,715.2 Q832,715.2 832,705.2 L832,531" fill="none" stroke="#4f7482" stroke-width="1.5" stroke-opacity="1" marker-end="url(#arrow-data)"/><rect x="796.4" y="578.8" width="71.2" height="15" rx="7.5" fill="#f4f1ea"/><text data-text="flow" x="832" y="589.7" text-anchor="middle" font-family="Inter,Segoe UI,system-ui,sans-serif" font-size="9.5" fill="#46636e">Star schema</text></g><g data-flow="e-wh-sql" data-from="sales-warehouse" data-to="sql-endpoint" data-kind="data"><title>Sales warehouse → Query endpoint: Query</title><path d="M948,755 L948,736.3 Q948,726.3 958,726.3 L1576,726.3 Q1586,726.3 1586,716.3 L1586,531" fill="none" stroke="#4f7482" stroke-width="1.5" stroke-opacity="1" marker-end="url(#arrow-data)"/><rect x="1246.8" y="718.8" width="40.3" height="15" rx="7.5" fill="#f4f1ea"/><text data-text="flow" x="1267" y="729.7" text-anchor="middle" font-family="Inter,Segoe UI,system-ui,sans-serif" font-size="9.5" fill="#46636e">Query</text></g><g data-flow="e-model-report" data-from="sales-model" data-to="sales-report" data-kind="data"><title>Sales model → Revenue report: Measures</title><path d="M832,455 L832,414.5 Q832,410 827.5,410 L827.5,410 Q823,410 823,405.5 L823,381" fill="none" stroke="#4f7482" stroke-width="1.5" stroke-opacity="1" marker-end="url(#arrow-data)"/><rect x="802.8" y="425" width="58.5" height="15" rx="7.5" fill="#f4f1ea"/><text data-text="flow" x="832" y="435.9" text-anchor="middle" font-family="Inter,Segoe UI,system-ui,sans-serif" font-size="9.5" fill="#46636e">Measures</text></g><g data-flow="e-sql-partner" data-from="sql-endpoint" data-to="partner-app" data-kind="data"><title>Query endpoint → Partner web app: JSON</title><path d="M1586,455 L1586,436 Q1586,426 1596,426 L1674,426 Q1684,426 1684,416 L1684,381" fill="none" stroke="#4f7482" stroke-width="1.5" stroke-opacity="1" marker-end="url(#arrow-data)"/><rect x="1615.7" y="418.5" width="38.6" height="15" rx="7.5" fill="#f4f1ea"/><text data-text="flow" x="1635" y="429.4" text-anchor="middle" font-family="Inter,Segoe UI,system-ui,sans-serif" font-size="9.5" fill="#46636e">JSON</text></g><g data-flow="e-sensor-stream" data-from="sensor-fleet" data-to="sensor-stream" data-kind="data"><title>Plant sensors → Sensor stream: Readings</title><path d="M504,755 L504,708.6 Q504,698.6 514,698.6 L1240.2,698.6 Q1249,698.6 1249,689.8 L1249,681" fill="none" stroke="#4f7482" stroke-width="1.5" stroke-opacity="1" marker-end="url(#arrow-data)"/><rect x="700.3" y="691.1" width="54.4" height="15" rx="7.5" fill="#f4f1ea"/><text data-text="flow" x="727.5" y="702" text-anchor="middle" font-family="Inter,Segoe UI,system-ui,sans-serif" font-size="9.5" fill="#46636e">Readings</text></g><g data-flow="e-stream-eh" data-from="sensor-stream" data-to="ops-eventhouse" data-kind="data"><title>Sensor stream → Telemetry store: Ingest</title><path d="M1267,681 L1267,732.9 Q1267,737.4 1262.5,737.4 L1262.5,737.4 Q1258,737.4 1258,741.9 L1258,755" fill="none" stroke="#4f7482" stroke-width="1.5" stroke-opacity="1" marker-end="url(#arrow-data)"/><rect x="1245.2" y="701.7" width="43.5" height="15" rx="7.5" fill="#f4f1ea"/><text data-text="flow" x="1267" y="712.6" text-anchor="middle" font-family="Inter,Segoe UI,system-ui,sans-serif" font-size="9.5" fill="#46636e">Ingest</text></g><g data-flow="e-eh-dash" data-from="ops-eventhouse" data-to="ops-dashboard" data-kind="data"><title>Telemetry store → Live dashboard: Live query</title><path d="M1240,755 L1240,741.9 Q1240,731.9 1230,731.9 L1170,731.9 Q1160,731.9 1160,721.9 L1160,381" fill="none" stroke="#4f7482" stroke-width="1.5" stroke-opacity="1" marker-end="url(#arrow-data)"/><rect x="1128.7" y="548.9" width="62.6" height="15" rx="7.5" fill="#f4f1ea"/><text data-text="flow" x="1160" y="559.8" text-anchor="middle" font-family="Inter,Segoe UI,system-ui,sans-serif" font-size="9.5" fill="#46636e">Live query</text></g><g data-flow="e-eh-alert" data-from="ops-eventhouse" data-to="ops-alert" data-kind="data"><title>Telemetry store → Threshold alert: Watch</title><path d="M1276,755 L1276,749 Q1276,743 1282,743 L1346,743 Q1356,743 1356,733 L1356,381" fill="none" stroke="#4f7482" stroke-width="1.5" stroke-opacity="1" marker-end="url(#arrow-data)"/><rect x="1296" y="735.5" width="40" height="15" rx="7.5" fill="#f4f1ea"/><text data-text="flow" x="1316" y="746.4" text-anchor="middle" font-family="Inter,Segoe UI,system-ui,sans-serif" font-size="9.5" fill="#46636e">Watch</text></g><g data-flow="e-report-analysts" data-from="sales-report" data-to="analysts" data-kind="data"><title>Revenue report → Analysts: Read</title><path d="M832,305 L832,278 Q832,268 832,258 L832,231" fill="none" stroke="#4f7482" stroke-width="1.5" stroke-opacity="1" marker-end="url(#arrow-data)"/></g><g data-flow="e-dash-operators" data-from="ops-dashboard" data-to="operators" data-kind="data"><title>Live dashboard → Operators: Watch</title><path d="M1160,305 L1160,274 Q1160,264 1170,264 L1239,264 Q1249,264 1249,254 L1249,231" fill="none" stroke="#4f7482" stroke-width="1.5" stroke-opacity="1" marker-end="url(#arrow-data)"/><rect x="1184.5" y="256.5" width="40" height="15" rx="7.5" fill="#f4f1ea"/><text data-text="flow" x="1204.5" y="267.4" text-anchor="middle" font-family="Inter,Segoe UI,system-ui,sans-serif" font-size="9.5" fill="#46636e">Watch</text></g><g data-flow="e-alert-operators" data-from="ops-alert" data-to="operators" data-kind="control"><title>Threshold alert → Operators: Notify</title><path d="M1356,305 L1356,282 Q1356,272 1346,272 L1277,272 Q1267,272 1267,262 L1267,231" fill="none" stroke="#a0835a" stroke-width="1.5" stroke-opacity="1" stroke-dasharray="5 4" stroke-linecap="round" marker-end="url(#arrow-control)"/><rect x="1290.8" y="264.5" width="41.4" height="15" rx="7.5" fill="#f4f1ea"/><text data-text="flow" x="1311.5" y="275.4" text-anchor="middle" font-family="Inter,Segoe UI,system-ui,sans-serif" font-size="9.5" fill="#8a6f4a">Notify</text></g><g data-flow="e-id-sql" data-from="workspace-identity" data-to="sql-endpoint" data-kind="control"><title>Workspace identity → Query endpoint: Authorize</title><path d="M1700,493 L1668,493" fill="none" stroke="#a0835a" stroke-width="1.5" stroke-opacity="1" stroke-dasharray="5 4" stroke-linecap="round" marker-end="url(#arrow-control)"/></g><g data-flow="e-id-report" data-from="workspace-identity" data-to="sales-report" data-kind="control"><title>Workspace identity → Revenue report: Sign in</title><path d="M1782,455 L1782,428 Q1782,418 1772,418 L851,418 Q841,418 841,408 L841,381" fill="none" stroke="#a0835a" stroke-width="1.5" stroke-opacity="1" stroke-dasharray="5 4" stroke-linecap="round" marker-end="url(#arrow-control)"/><rect x="1289.4" y="410.5" width="44.2" height="15" rx="7.5" fill="#f4f1ea"/><text data-text="flow" x="1311.5" y="421.4" text-anchor="middle" font-family="Inter,Segoe UI,system-ui,sans-serif" font-size="9.5" fill="#8a6f4a">Sign in</text></g></g>
<g data-node="shared-lake" data-kind="lake"><title>Shared lake: Single storage layer for every workspace. Tables are kept once as open columnar (Delta/Parquet) files; each engine reads the same copy.</title><rect x="202" y="909" width="1686" height="76" rx="38" fill="#7fb0bb" stroke="#6a9aa6" stroke-width="1"/><rect x="202" y="909" width="1686" height="76" rx="38" fill="url(#water)"/><g transform="translate(226,931)" fill="none" stroke="#ffffff" stroke-width="1.7" stroke-linecap="round" stroke-linejoin="round"><path d="M2 18c4-3 7 3 11 0s7 3 11 0 6 2 6 2"/><path d="M2 24c4-3 7 3 11 0s7 3 11 0 6 2 6 2"/></g><text data-text="node" x="268" y="945" font-family="Inter,Segoe UI,system-ui,sans-serif" font-size="15" font-weight="650" fill="#ffffff">Shared lake</text><text data-text="node-sub" x="268" y="962" font-family="Inter,Segoe UI,system-ui,sans-serif" font-size="10.5" fill="#f2f8f9">Single storage layer for every workspace</text></g>
<g data-node="erp-db" data-kind="database" data-status="active"><title>ERP database (Database): Operational system of record for orders and customers. Read by a scheduled copy; never written by the platform.</title><rect x="226" y="758" width="164" height="76" rx="11" fill="#1d2b33" fill-opacity=".06"/><rect data-card="" x="226" y="755" width="164" height="76" rx="11" fill="#ffffff" stroke="#c9c2b4" stroke-width="1"/><rect x="236" y="769" width="44" height="44" rx="10" fill="#9aa5ad" fill-opacity=".2"/><g transform="translate(242,775)" fill="none" stroke="#24333d" stroke-width="1.5" stroke-linecap="round" stroke-linejoin="round"><ellipse cx="16" cy="8" rx="9" ry="3.5" fill="#9aa5ad"/><path d="M7 8v16c0 2 4 3.5 9 3.5s9-1.5 9-3.5V8M7 16c0 2 4 3.5 9 3.5s9-1.5 9-3.5"/></g><text data-text="node" x="290" y="796.4" font-family="Inter,Segoe UI,system-ui,sans-serif" font-size="12.5" font-weight="620" fill="#24333d">ERP database</text><text data-text="kind" x="290" y="819" font-family="Inter,Segoe UI,system-ui,sans-serif" font-size="9.5" letter-spacing=".6" fill="#6a7a84">DATABASE</text></g>
<g data-node="sensor-fleet" data-kind="device" data-status="active"><title>Plant sensors (Device fleet): Field devices that emit temperature and vibration readings every few seconds.</title><rect x="422" y="758" width="164" height="76" rx="11" fill="#1d2b33" fill-opacity=".06"/><rect data-card="" x="422" y="755" width="164" height="76" rx="11" fill="#ffffff" stroke="#c9c2b4" stroke-width="1"/><rect x="432" y="769" width="44" height="44" rx="10" fill="#97a39a" fill-opacity=".2"/><g transform="translate(438,775)" fill="none" stroke="#24333d" stroke-width="1.5" stroke-linecap="round" stroke-linejoin="round"><path d="M16 28V12"/><rect x="11" y="18" width="10" height="7" rx="1.5" fill="#97a39a"/><path d="M10 7a8 8 0 0 1 12 0M12.5 10a4.5 4.5 0 0 1 7 0"/><circle cx="16" cy="12" r="1.2" fill="currentColor"/></g><text data-text="node" x="486" y="796.4" font-family="Inter,Segoe UI,system-ui,sans-serif" font-size="12.5" font-weight="620" fill="#24333d">Plant sensors</text><text data-text="kind" x="486" y="819" font-family="Inter,Segoe UI,system-ui,sans-serif" font-size="9.5" letter-spacing=".6" fill="#6a7a84">DEVICE FLEET</text></g>
<g data-node="sales-lakehouse" data-kind="lakehouse" data-status="active"><title>Sales lakehouse (Lakehouse): Raw (bronze) and cleaned (silver) tables for the sales domain, stored as files in the shared lake.</title><rect x="652" y="758" width="164" height="76" rx="11" fill="#1d2b33" fill-opacity=".06"/><rect data-card="" x="652" y="755" width="164" height="76" rx="11" fill="#ffffff" stroke="#c9c2b4" stroke-width="1"/><rect x="662" y="769" width="44" height="44" rx="10" fill="#c99a78" fill-opacity=".2"/><g transform="translate(668,775)" fill="none" stroke="#24333d" stroke-width="1.5" stroke-linecap="round" stroke-linejoin="round"><path d="M7 20v-8l9-6 9 6v8z" fill="#c99a78"/><path d="M13 20v-5h6v5"/><path d="M2 25c4-2 7 2 11 0s7 2 11 0 6 1 6 1"/></g><text data-text="node" x="716" y="788.9" font-family="Inter,Segoe UI,system-ui,sans-serif" font-size="12.5" font-weight="620" fill="#24333d">Sales</text><text data-text="node" x="716" y="803.9" font-family="Inter,Segoe UI,system-ui,sans-serif" font-size="12.5" font-weight="620" fill="#24333d">lakehouse</text><text data-text="kind" x="716" y="819" font-family="Inter,Segoe UI,system-ui,sans-serif" font-size="9.5" letter-spacing=".6" fill="#6a7a84">LAKEHOUSE</text></g>
<g data-node="sales-warehouse" data-kind="warehouse" data-status="active"><title>Sales warehouse (Warehouse): Curated (gold) star schema with SQL tables for reporting.</title><rect x="848" y="758" width="164" height="76" rx="11" fill="#1d2b33" fill-opacity=".06"/><rect data-card="" x="848" y="755" width="164" height="76" rx="11" fill="#ffffff" stroke="#c9c2b4" stroke-width="1"/><rect x="858" y="769" width="44" height="44" rx="10" fill="#b9a58a" fill-opacity=".2"/><g transform="translate(864,775)" fill="none" stroke="#24333d" stroke-width="1.5" stroke-linecap="round" stroke-linejoin="round"><path d="M4 28V12l12-7 12 7v16z" fill="#b9a58a"/><path d="M8 28V15h16v13M8 20h16M8 24h16"/><path d="M11 18h3M18 18h3M12 22h4M17 26h3"/></g><text data-text="node" x="912" y="788.9" font-family="Inter,Segoe UI,system-ui,sans-serif" font-size="12.5" font-weight="620" fill="#24333d">Sales</text><text data-text="node" x="912" y="803.9" font-family="Inter,Segoe UI,system-ui,sans-serif" font-size="12.5" font-weight="620" fill="#24333d">warehouse</text><text data-text="kind" x="912" y="819" font-family="Inter,Segoe UI,system-ui,sans-serif" font-size="9.5" letter-spacing=".6" fill="#6a7a84">WAREHOUSE</text></g>
<g data-node="ops-eventhouse" data-kind="eventhouse" data-status="active"><title>Telemetry store (Event store): Time-partitioned event store optimised for recent-window queries over sensor readings.</title><rect x="1176" y="758" width="164" height="76" rx="11" fill="#1d2b33" fill-opacity=".06"/><rect data-card="" x="1176" y="755" width="164" height="76" rx="11" fill="#ffffff" stroke="#c9c2b4" stroke-width="1"/><rect x="1186" y="769" width="44" height="44" rx="10" fill="#8d9fb6" fill-opacity=".2"/><g transform="translate(1192,775)" fill="none" stroke="#24333d" stroke-width="1.5" stroke-linecap="round" stroke-linejoin="round"><ellipse cx="16" cy="7" rx="10" ry="3" fill="#8d9fb6"/><path d="M6 7v18c0 2 5 3 10 3s10-1 10-3V7"/><path d="M6 13c0 2 5 3 10 3s10-1 10-3M6 19c0 2 5 3 10 3s10-1 10-3"/></g><text data-text="node" x="1240" y="788.9" font-family="Inter,Segoe UI,system-ui,sans-serif" font-size="12.5" font-weight="620" fill="#24333d">Telemetry</text><text data-text="node" x="1240" y="803.9" font-family="Inter,Segoe UI,system-ui,sans-serif" font-size="12.5" font-weight="620" fill="#24333d">store</text><text data-text="kind" x="1240" y="819" font-family="Inter,Segoe UI,system-ui,sans-serif" font-size="9.5" letter-spacing=".6" fill="#6a7a84">EVENT STORE</text></g>
<g data-node="ingest-pipeline" data-kind="pipeline" data-status="active"><title>Nightly copy (Pipeline): Scheduled pipeline that copies changed ERP rows into the lakehouse raw zone.</title><rect x="652" y="608" width="164" height="76" rx="11" fill="#1d2b33" fill-opacity=".06"/><rect data-card="" x="652" y="605" width="164" height="76" rx="11" fill="#ffffff" stroke="#c9c2b4" stroke-width="1"/><rect x="662" y="619" width="44" height="44" rx="10" fill="#9bb0b8" fill-opacity=".2"/><g transform="translate(668,625)" fill="none" stroke="#24333d" stroke-width="1.5" stroke-linecap="round" stroke-linejoin="round"><path d="M2 13h10v6H2M30 13H20v6h10" /><rect x="12" y="10" width="8" height="12" rx="2" fill="#9bb0b8"/><circle cx="16" cy="6" r="3"/><path d="M16 9v1"/></g><text data-text="node" x="716" y="646.4" font-family="Inter,Segoe UI,system-ui,sans-serif" font-size="12.5" font-weight="620" fill="#24333d">Nightly copy</text><text data-text="kind" x="716" y="669" font-family="Inter,Segoe UI,system-ui,sans-serif" font-size="9.5" letter-spacing=".6" fill="#6a7a84">PIPELINE</text></g>
<g data-node="clean-notebook" data-kind="notebook" data-status="active"><title>Cleaning notebook (Notebook): Spark notebook that deduplicates and types raw tables into silver, then builds gold aggregates.</title><rect x="848" y="608" width="164" height="76" rx="11" fill="#1d2b33" fill-opacity=".06"/><rect data-card="" x="848" y="605" width="164" height="76" rx="11" fill="#ffffff" stroke="#c9c2b4" stroke-width="1"/><rect x="858" y="619" width="44" height="44" rx="10" fill="#ece5d3" fill-opacity=".2"/><g transform="translate(864,625)" fill="none" stroke="#24333d" stroke-width="1.5" stroke-linecap="round" stroke-linejoin="round"><path d="M16 8c-4-2-8-2-12-1v18c4-1 8-1 12 1 4-2 8-2 12-1V7c-4-1-8-1-12 1z" fill="#ece5d3"/><path d="M16 8v18M7 12h6M7 16h4M19 12h6M19 16h5M19 20h3"/></g><text data-text="node" x="912" y="638.9" font-family="Inter,Segoe UI,system-ui,sans-serif" font-size="12.5" font-weight="620" fill="#24333d">Cleaning</text><text data-text="node" x="912" y="653.9" font-family="Inter,Segoe UI,system-ui,sans-serif" font-size="12.5" font-weight="620" fill="#24333d">notebook</text><text data-text="kind" x="912" y="669" font-family="Inter,Segoe UI,system-ui,sans-serif" font-size="9.5" letter-spacing=".6" fill="#6a7a84">NOTEBOOK</text></g>
<g data-node="sensor-stream" data-kind="stream" data-status="active"><title>Sensor stream (Event stream): Event stream that receives device readings, filters them and routes them into the telemetry store.</title><rect x="1176" y="608" width="164" height="76" rx="11" fill="#1d2b33" fill-opacity=".06"/><rect data-card="" x="1176" y="605" width="164" height="76" rx="11" fill="#ffffff" stroke="#c9c2b4" stroke-width="1"/><rect x="1186" y="619" width="44" height="44" rx="10" fill="#79a9b8" fill-opacity=".2"/><g transform="translate(1192,625)" fill="none" stroke="#24333d" stroke-width="1.5" stroke-linecap="round" stroke-linejoin="round"><path d="M2 10c6 0 6 6 12 6s6-6 12-6h4M2 16c6 0 6 6 12 6s6-6 12-6h4"/><circle cx="9" cy="12" r="1.4" fill="currentColor"/><circle cx="21" cy="18" r="1.4" fill="currentColor"/></g><text data-text="node" x="1240" y="638.9" font-family="Inter,Segoe UI,system-ui,sans-serif" font-size="12.5" font-weight="620" fill="#24333d">Sensor</text><text data-text="node" x="1240" y="653.9" font-family="Inter,Segoe UI,system-ui,sans-serif" font-size="12.5" font-weight="620" fill="#24333d">stream</text><text data-text="kind" x="1240" y="669" font-family="Inter,Segoe UI,system-ui,sans-serif" font-size="9.5" letter-spacing=".6" fill="#6a7a84">EVENT STREAM</text></g>
<g data-node="sales-model" data-kind="semantic-model" data-status="active"><title>Sales model (Semantic model): Semantic model: relationships, measures (revenue, margin) and row-level rules over the warehouse.</title><rect x="750" y="458" width="164" height="76" rx="11" fill="#1d2b33" fill-opacity=".06"/><rect data-card="" x="750" y="455" width="164" height="76" rx="11" fill="#ffffff" stroke="#c9c2b4" stroke-width="1"/><rect x="760" y="469" width="44" height="44" rx="10" fill="#c9a65f" fill-opacity=".2"/><g transform="translate(766,475)" fill="none" stroke="#24333d" stroke-width="1.5" stroke-linecap="round" stroke-linejoin="round"><circle cx="16" cy="16" r="4.5" fill="#c9a65f"/><circle cx="6" cy="7" r="2.6"/><circle cx="26" cy="7" r="2.6"/><circle cx="6" cy="25" r="2.6"/><circle cx="26" cy="25" r="2.6"/><path d="M8 9l5 4M24 9l-5 4M8 23l5-4M24 23l-5-4"/></g><text data-text="node" x="814" y="496.4" font-family="Inter,Segoe UI,system-ui,sans-serif" font-size="12.5" font-weight="620" fill="#24333d">Sales model</text><text data-text="kind" x="814" y="519" font-family="Inter,Segoe UI,system-ui,sans-serif" font-size="8.5" letter-spacing=".6" fill="#6a7a84">SEMANTIC MODEL</text></g>
<g data-node="sql-endpoint" data-kind="api" data-status="active"><title>Query endpoint (API service): Read-only SQL/GraphQL endpoint that exposes curated tables to applications.</title><rect x="1504" y="458" width="164" height="76" rx="11" fill="#1d2b33" fill-opacity=".06"/><rect data-card="" x="1504" y="455" width="164" height="76" rx="11" fill="#ffffff" stroke="#c9c2b4" stroke-width="1"/><rect x="1514" y="469" width="44" height="44" rx="10" fill="#c2b49a" fill-opacity=".2"/><g transform="translate(1520,475)" fill="none" stroke="#24333d" stroke-width="1.5" stroke-linecap="round" stroke-linejoin="round"><path d="M5 28V14a11 11 0 0 1 22 0v14" fill="#c2b49a"/><path d="M10 28V15a6 6 0 0 1 12 0v13"/><path d="M3 28h26"/></g><text data-text="node" x="1568" y="488.9" font-family="Inter,Segoe UI,system-ui,sans-serif" font-size="12.5" font-weight="620" fill="#24333d">Query</text><text data-text="node" x="1568" y="503.9" font-family="Inter,Segoe UI,system-ui,sans-serif" font-size="12.5" font-weight="620" fill="#24333d">endpoint</text><text data-text="kind" x="1568" y="519" font-family="Inter,Segoe UI,system-ui,sans-serif" font-size="9.5" letter-spacing=".6" fill="#6a7a84">API SERVICE</text></g>
<g data-node="workspace-identity" data-kind="identity" data-status="active"><title>Workspace identity (Identity): Single sign-on and workspace roles. Every report, endpoint and item checks it before answering.</title><rect x="1700" y="458" width="164" height="76" rx="11" fill="#1d2b33" fill-opacity=".06"/><rect data-card="" x="1700" y="455" width="164" height="76" rx="11" fill="#ffffff" stroke="#c9c2b4" stroke-width="1"/><rect x="1710" y="469" width="44" height="44" rx="10" fill="#d0a948" fill-opacity=".2"/><g transform="translate(1716,475)" fill="none" stroke="#24333d" stroke-width="1.5" stroke-linecap="round" stroke-linejoin="round"><circle cx="11" cy="16" r="6" fill="#d0a948"/><circle cx="11" cy="16" r="2"/><path d="M17 16h12M24 16v4M28 16v3"/></g><text data-text="node" x="1764" y="488.9" font-family="Inter,Segoe UI,system-ui,sans-serif" font-size="12.5" font-weight="620" fill="#24333d">Workspace</text><text data-text="node" x="1764" y="503.9" font-family="Inter,Segoe UI,system-ui,sans-serif" font-size="12.5" font-weight="620" fill="#24333d">identity</text><text data-text="kind" x="1764" y="519" font-family="Inter,Segoe UI,system-ui,sans-serif" font-size="9.5" letter-spacing=".6" fill="#6a7a84">IDENTITY</text></g>
<g data-node="sales-report" data-kind="report" data-status="active"><title>Revenue report (Report): Interactive report on the sales model: revenue by region, month and product.</title><rect x="750" y="308" width="164" height="76" rx="11" fill="#1d2b33" fill-opacity=".06"/><rect data-card="" x="750" y="305" width="164" height="76" rx="11" fill="#ffffff" stroke="#c9c2b4" stroke-width="1"/><rect x="760" y="319" width="44" height="44" rx="10" fill="#6f8796" fill-opacity=".2"/><g transform="translate(766,325)" fill="none" stroke="#24333d" stroke-width="1.5" stroke-linecap="round" stroke-linejoin="round"><rect x="3" y="5" width="26" height="17" rx="2" fill="#6f8796"/><path d="M12 28h8M16 22v6"/><path d="M8 18v-4M12 18v-7M16 18v-5M20 18v-9M24 18v-6" stroke-width="2.2"/></g><text data-text="node" x="814" y="338.9" font-family="Inter,Segoe UI,system-ui,sans-serif" font-size="12.5" font-weight="620" fill="#24333d">Revenue</text><text data-text="node" x="814" y="353.9" font-family="Inter,Segoe UI,system-ui,sans-serif" font-size="12.5" font-weight="620" fill="#24333d">report</text><text data-text="kind" x="814" y="369" font-family="Inter,Segoe UI,system-ui,sans-serif" font-size="9.5" letter-spacing=".6" fill="#6a7a84">REPORT</text></g>
<g data-node="ops-dashboard" data-kind="dashboard" data-status="active"><title>Live dashboard (Live dashboard): Auto-refreshing tiles over the last hour of sensor readings.</title><rect x="1078" y="308" width="164" height="76" rx="11" fill="#1d2b33" fill-opacity=".06"/><rect data-card="" x="1078" y="305" width="164" height="76" rx="11" fill="#ffffff" stroke="#c9c2b4" stroke-width="1"/><rect x="1088" y="319" width="44" height="44" rx="10" fill="#6f8796" fill-opacity=".2"/><g transform="translate(1094,325)" fill="none" stroke="#24333d" stroke-width="1.5" stroke-linecap="round" stroke-linejoin="round"><rect x="3" y="5" width="26" height="19" rx="2" fill="#6f8796"/><path d="M6 18l5-5 4 3 5-6 6 4"/><path d="M12 28h8"/></g><text data-text="node" x="1142" y="338.9" font-family="Inter,Segoe UI,system-ui,sans-serif" font-size="12.5" font-weight="620" fill="#24333d">Live</text><text data-text="node" x="1142" y="353.9" font-family="Inter,Segoe UI,system-ui,sans-serif" font-size="12.5" font-weight="620" fill="#24333d">dashboard</text><text data-text="kind" x="1142" y="369" font-family="Inter,Segoe UI,system-ui,sans-serif" font-size="8.5" letter-spacing=".6" fill="#6a7a84">LIVE DASHBOARD</text></g>
<g data-node="ops-alert" data-kind="alert" data-status="active"><title>Threshold alert (Alert rule): Rule that fires when a reading crosses its threshold and notifies the on-call operator.</title><rect x="1274" y="308" width="164" height="76" rx="11" fill="#1d2b33" fill-opacity=".06"/><rect data-card="" x="1274" y="305" width="164" height="76" rx="11" fill="#ffffff" stroke="#c9c2b4" stroke-width="1"/><rect x="1284" y="319" width="44" height="44" rx="10" fill="#d17d5e" fill-opacity=".2"/><g transform="translate(1290,325)" fill="none" stroke="#24333d" stroke-width="1.5" stroke-linecap="round" stroke-linejoin="round"><path d="M16 4c5 0 8 4 8 9v6l3 4H5l3-4v-6c0-5 3-9 8-9z" fill="#d17d5e"/><path d="M13 26a3 3 0 0 0 6 0"/></g><text data-text="node" x="1338" y="338.9" font-family="Inter,Segoe UI,system-ui,sans-serif" font-size="12.5" font-weight="620" fill="#24333d">Threshold</text><text data-text="node" x="1338" y="353.9" font-family="Inter,Segoe UI,system-ui,sans-serif" font-size="12.5" font-weight="620" fill="#24333d">alert</text><text data-text="kind" x="1338" y="369" font-family="Inter,Segoe UI,system-ui,sans-serif" font-size="9.5" letter-spacing=".6" fill="#6a7a84">ALERT RULE</text></g>
<g data-node="partner-app" data-kind="browser" data-status="active"><title>Partner web app (Browser client): External web application that reads curated data through the query endpoint.</title><rect x="1602" y="308" width="164" height="76" rx="11" fill="#1d2b33" fill-opacity=".06"/><rect data-card="" x="1602" y="305" width="164" height="76" rx="11" fill="#ffffff" stroke="#c9c2b4" stroke-width="1"/><rect x="1612" y="319" width="44" height="44" rx="10" fill="#8597a6" fill-opacity=".2"/><g transform="translate(1618,325)" fill="none" stroke="#24333d" stroke-width="1.5" stroke-linecap="round" stroke-linejoin="round"><rect x="3" y="6" width="26" height="20" rx="2" fill="#8597a6"/><path d="M3 11h26"/><circle cx="7" cy="8.5" r=".8"/><circle cx="10" cy="8.5" r=".8"/><path d="M7 16h12M7 20h8"/></g><text data-text="node" x="1666" y="338.9" font-family="Inter,Segoe UI,system-ui,sans-serif" font-size="12.5" font-weight="620" fill="#24333d">Partner web</text><text data-text="node" x="1666" y="353.9" font-family="Inter,Segoe UI,system-ui,sans-serif" font-size="12.5" font-weight="620" fill="#24333d">app</text><text data-text="kind" x="1666" y="369" font-family="Inter,Segoe UI,system-ui,sans-serif" font-size="8.5" letter-spacing=".6" fill="#6a7a84">BROWSER CLIENT</text></g>
<g data-node="analysts" data-kind="users" data-status="active"><title>Analysts (People): Business analysts who explore revenue and share findings.</title><rect x="750" y="158" width="164" height="76" rx="11" fill="#1d2b33" fill-opacity=".06"/><rect data-card="" x="750" y="155" width="164" height="76" rx="11" fill="#ffffff" stroke="#c9c2b4" stroke-width="1"/><rect x="760" y="169" width="44" height="44" rx="10" fill="#c48e6e" fill-opacity=".2"/><g transform="translate(766,175)" fill="none" stroke="#24333d" stroke-width="1.5" stroke-linecap="round" stroke-linejoin="round"><circle cx="11" cy="10" r="4" fill="#c48e6e"/><circle cx="22" cy="11" r="3.3" fill="#c48e6e"/><path d="M3 27c0-5 4-8 8-8s8 3 8 8M17 21c1-2 3-3 5-3 4 0 7 3 7 7"/></g><text data-text="node" x="814" y="196.4" font-family="Inter,Segoe UI,system-ui,sans-serif" font-size="12.5" font-weight="620" fill="#24333d">Analysts</text><text data-text="kind" x="814" y="219" font-family="Inter,Segoe UI,system-ui,sans-serif" font-size="9.5" letter-spacing=".6" fill="#6a7a84">PEOPLE</text></g>
<g data-node="operators" data-kind="users" data-status="active"><title>Operators (People): Plant operators who watch live readings and respond to alerts.</title><rect x="1176" y="158" width="164" height="76" rx="11" fill="#1d2b33" fill-opacity=".06"/><rect data-card="" x="1176" y="155" width="164" height="76" rx="11" fill="#ffffff" stroke="#c9c2b4" stroke-width="1"/><rect x="1186" y="169" width="44" height="44" rx="10" fill="#c48e6e" fill-opacity=".2"/><g transform="translate(1192,175)" fill="none" stroke="#24333d" stroke-width="1.5" stroke-linecap="round" stroke-linejoin="round"><circle cx="11" cy="10" r="4" fill="#c48e6e"/><circle cx="22" cy="11" r="3.3" fill="#c48e6e"/><path d="M3 27c0-5 4-8 8-8s8 3 8 8M17 21c1-2 3-3 5-3 4 0 7 3 7 7"/></g><text data-text="node" x="1240" y="196.4" font-family="Inter,Segoe UI,system-ui,sans-serif" font-size="12.5" font-weight="620" fill="#24333d">Operators</text><text data-text="kind" x="1240" y="219" font-family="Inter,Segoe UI,system-ui,sans-serif" font-size="9.5" letter-spacing=".6" fill="#6a7a84">PEOPLE</text></g>
<g data-legend=""><path d="M36 1044 h36" stroke="#4f7482" stroke-width="1.6" marker-end="url(#arrow-data)"/><text data-text="legend" x="82" y="1048" font-family="Inter,Segoe UI,system-ui,sans-serif" font-size="10.5" fill="#6a7a84">data flow</text><path d="M153.7 1044 h36" stroke="#a0835a" stroke-width="1.6" stroke-dasharray="5 4" stroke-linecap="round" marker-end="url(#arrow-control)"/><text data-text="legend" x="199.7" y="1048" font-family="Inter,Segoe UI,system-ui,sans-serif" font-size="10.5" fill="#6a7a84">control / trigger</text><text data-text="note" x="36" y="1074" font-family="Inter,Segoe UI,system-ui,sans-serif" font-size="10" fill="#6a7a84">SYNTHETIC illustration of a Fabric-like platform. Generic names, no logos; not a vendor reference architecture or a real tenant.</text></g>
</svg>
