<svg xmlns="http://www.w3.org/2000/svg" viewBox="-804.8 -787.7 1070.8 1139" data-atlas="fabric-platform" data-representation="isometric" data-renderer="framework-motion-v2" role="img"><title>Unified data platform / Overview</title><desc>Authored synthetic snapshot, not an execution trace. One shared lake underneath; every workload sits at its own height above it.</desc><rect x="-804.8" y="-787.7" width="1070.8" height="1139" fill="#f4f1ea"/><text x="-776.8" y="-747.7" font-family="Inter,Segoe UI,system-ui,sans-serif" font-size="20" font-weight="650" fill="#24333d">Unified data platform</text><text x="-776.8" y="-727.7" font-family="Inter,Segoe UI,system-ui,sans-serif" font-size="11" fill="#6a7a84">Isometric · rendered by MosaicStudio Motion v2 · layer planes added by the atlas client</text><defs><marker id="motion-arrow" viewBox="0 0 10 10" refX="9" refY="5" markerWidth="6" markerHeight="6" orient="auto-start-reverse"><path d="M0 0 L10 5 L0 10z" fill="#578ba4"/></marker></defs><g data-layer="lake" data-node="shared-lake"><polygon points="-55.2,-101.8 199.2,30.7 -362.4,323.2 -616.8,190.7" fill="#7fb0bb" fill-opacity=".55" stroke="#7fb0bb" stroke-opacity=".7"/><text x="-630.8" y="194.7" text-anchor="end" font-family="Inter,Segoe UI,system-ui,sans-serif" font-size="12" font-weight="600" fill="#24333d">Shared lake</text></g><g data-layer="items"><polygon points="-55.2,-226.6 199.2,-94.1 -362.4,198.4 -616.8,65.9" fill="#8fb2a6" fill-opacity=".16" stroke="#8fb2a6" stroke-opacity=".7"/><text x="-630.8" y="69.9" text-anchor="end" font-family="Inter,Segoe UI,system-ui,sans-serif" font-size="12" font-weight="600" fill="#24333d">Data items</text></g><g data-layer="engines"><polygon points="-55.2,-351.4 199.2,-218.9 -362.4,73.6 -616.8,-58.9" fill="#a7b98f" fill-opacity=".16" stroke="#a7b98f" stroke-opacity=".7"/><text x="-630.8" y="-54.9" text-anchor="end" font-family="Inter,Segoe UI,system-ui,sans-serif" font-size="12" font-weight="600" fill="#24333d">Engines</text></g><g data-layer="models"><polygon points="-55.2,-476.2 199.2,-343.7 -362.4,-51.2 -616.8,-183.7" fill="#d2b071" fill-opacity=".16" stroke="#d2b071" stroke-opacity=".7"/><text x="-630.8" y="-179.7" text-anchor="end" font-family="Inter,Segoe UI,system-ui,sans-serif" font-size="12" font-weight="600" fill="#24333d">Models &amp; endpoints</text></g><g data-layer="apps"><polygon points="-55.2,-601 199.2,-468.5 -362.4,-176 -616.8,-308.5" fill="#d39a7c" fill-opacity=".16" stroke="#d39a7c" stroke-opacity=".7"/><text x="-630.8" y="-304.5" text-anchor="end" font-family="Inter,Segoe UI,system-ui,sans-serif" font-size="12" font-weight="600" fill="#24333d">Reports &amp; apps</text></g><g data-layer="people"><polygon points="-55.2,-725.8 199.2,-593.3 -362.4,-300.8 -616.8,-433.3" fill="#8e9fb2" fill-opacity=".16" stroke="#8e9fb2" stroke-opacity=".7"/><text x="-630.8" y="-429.3" text-anchor="end" font-family="Inter,Segoe UI,system-ui,sans-serif" font-size="12" font-weight="600" fill="#24333d">People</text></g><path d="M-472.800,28.910 L-472.800,-8.050 L-472.800,-8.050 L-333.600,-80.550 L-333.600,-168.390" fill="none" stroke="#3284a4" stroke-width="2.5" marker-end="url(#motion-arrow)"/><path d="M-333.600,-168.390 L-333.600,-43.590" fill="none" stroke="#3284a4" stroke-width="2.5" marker-end="url(#motion-arrow)"/><path d="M-333.600,-43.590 L-333.600,-80.550 L-223.200,-23.050 L-223.200,-23.050 L-223.200,-110.890" fill="none" stroke="#3284a4" stroke-width="2.5" marker-end="url(#motion-arrow)"/><path d="M-223.200,-110.890 L-223.200,13.910" fill="none" stroke="#3284a4" stroke-width="2.5" marker-end="url(#motion-arrow)"/><path d="M-223.200,13.910 L-223.200,-147.850 L-278.400,-176.600 L-278.400,-176.600 L-278.400,-264.440" fill="none" stroke="#3284a4" stroke-width="2.5" marker-end="url(#motion-arrow)"/><path d="M-223.200,13.910 L-223.200,-147.850 L-333.600,-205.350 L-55.200,-350.350 L-55.200,-438.190" fill="none" stroke="#3284a4" stroke-width="2.5" marker-end="url(#motion-arrow)"/><path d="M-278.400,-264.440 L-278.400,-389.240" fill="none" stroke="#3284a4" stroke-width="2.5" marker-end="url(#motion-arrow)"/><path d="M-55.200,-438.190 L-55.200,-475.150 L0.000,-446.400 L0.000,-446.400 L0.000,-534.240" fill="none" stroke="#3284a4" stroke-width="2.5" marker-end="url(#motion-arrow)"/><path d="M-362.400,86.410 L-362.400,49.450 L-417.600,20.700 L-139.200,-124.300 L-139.200,-212.140" fill="none" stroke="#3284a4" stroke-width="2.5" marker-end="url(#motion-arrow)"/><path d="M-139.200,-212.140 L-139.200,-87.340" fill="none" stroke="#3284a4" stroke-width="2.5" marker-end="url(#motion-arrow)"/><path d="M-139.200,-87.340 L-139.200,-373.900 L-194.400,-402.650 L-194.400,-402.650 L-194.400,-490.490" fill="none" stroke="#3284a4" stroke-width="2.5" marker-end="url(#motion-arrow)"/><path d="M-139.200,-87.340 L-139.200,-373.900 L-84.000,-345.150 L-84.000,-345.150 L-84.000,-432.990" fill="none" stroke="#3284a4" stroke-width="2.5" marker-end="url(#motion-arrow)"/><path d="M-278.400,-389.240 L-278.400,-514.040" fill="none" stroke="#3284a4" stroke-width="2.5" marker-end="url(#motion-arrow)"/><path d="M-194.400,-490.490 L-194.400,-527.450 L-139.200,-498.700 L-139.200,-498.700 L-139.200,-586.540" fill="none" stroke="#3284a4" stroke-width="2.5" marker-end="url(#motion-arrow)"/><path d="M-84.000,-432.990 L-84.000,-469.950 L-139.200,-498.700 L-139.200,-498.700 L-139.200,-586.540" fill="none" stroke="#b4c5d0" stroke-width="1.4" marker-end="url(#motion-arrow)"/><path d="M55.200,-380.690 L55.200,-391.250 L-55.200,-448.750 L-55.200,-448.750 L-55.200,-438.190" fill="none" stroke="#b4c5d0" stroke-width="1.4" marker-end="url(#motion-arrow)"/><path d="M55.200,-380.690 L55.200,-417.650 L0.000,-446.400 L-278.400,-301.400 L-278.400,-389.240" fill="none" stroke="#b4c5d0" stroke-width="1.4" marker-end="url(#motion-arrow)"/><g data-entity="sql-endpoint"><title>Query endpoint</title><polygon points="-117.600,-424.750 -55.200,-392.250 -55.200,-370.650 -117.600,-403.150" fill="#938975" stroke="#9b907b" stroke-width="1.2"/><polygon points="7.200,-424.750 7.200,-403.150 -55.200,-370.650 -55.200,-392.250" fill="#ab9e88" stroke="#9b907b" stroke-width="1.2"/><polygon points="-55.200,-457.250 7.200,-424.750 -55.200,-392.250 -117.600,-424.750" fill="#e7e1d7" stroke="#9b907b" stroke-width="1.2"/><path d="M-55.200,-461.250 L40.800,-275.650" fill="none" stroke="#93a8b8" stroke-width=".8" stroke-dasharray="2 3"/><circle cx="-55.199999999999996" cy="-466.25" r="3" fill="#b5c2cc"/><text x="40.800000000000004" y="-278.65000000000003" text-anchor="middle" font-size="12" fill="#21384a" font-family="system-ui,sans-serif">Query endpoint</text></g><g data-entity="partner-app"><title>Partner web app</title><polygon points="-62.400,-520.800 0.000,-488.300 0.000,-466.700 -62.400,-499.200" fill="#65737e" stroke="#6a7985" stroke-width="1.2"/><polygon points="62.400,-520.800 62.400,-499.200 0.000,-466.700 0.000,-488.300" fill="#758592" stroke="#6a7985" stroke-width="1.2"/><polygon points="0.000,-553.300 62.400,-520.800 0.000,-488.300 -62.400,-520.800" fill="#ced5db" stroke="#6a7985" stroke-width="1.2"/><path d="M0.000,-557.300 L96.000,-443.700" fill="none" stroke="#93a8b8" stroke-width=".8" stroke-dasharray="2 3"/><circle cx="0" cy="-562.3" r="3" fill="#b5c2cc"/><text x="96" y="-446.70000000000005" text-anchor="middle" font-size="12" fill="#21384a" font-family="system-ui,sans-serif">Partner web app</text></g><g data-entity="workspace-identity"><title>Workspace identity</title><polygon points="-7.200,-367.250 55.200,-334.750 55.200,-313.150 -7.200,-345.650" fill="#9e8037" stroke="#a6873a" stroke-width="1.2"/><polygon points="117.600,-367.250 117.600,-345.650 55.200,-313.150 55.200,-334.750" fill="#b7953f" stroke="#a6873a" stroke-width="1.2"/><polygon points="55.200,-399.750 117.600,-367.250 55.200,-334.750 -7.200,-367.250" fill="#ecddb6" stroke="#a6873a" stroke-width="1.2"/><path d="M55.200,-403.750 L55.200,-246.150" fill="none" stroke="#93a8b8" stroke-width=".8" stroke-dasharray="2 3"/><circle cx="55.199999999999996" cy="-408.75" r="3" fill="#b5c2cc"/><text x="55.199999999999996" y="-249.15000000000003" text-anchor="middle" font-size="12" fill="#21384a" font-family="system-ui,sans-serif">Workspace identity</text></g><g data-entity="ops-dashboard"><title>Live dashboard</title><polygon points="-256.800,-477.050 -194.400,-444.550 -194.400,-422.950 -256.800,-455.450" fill="#546772" stroke="#596c78" stroke-width="1.2"/><polygon points="-132.000,-477.050 -132.000,-455.450 -194.400,-422.950 -194.400,-444.550" fill="#627784" stroke="#596c78" stroke-width="1.2"/><polygon points="-194.400,-509.550 -132.000,-477.050 -194.400,-444.550 -256.800,-477.050" fill="#c5cfd5" stroke="#596c78" stroke-width="1.2"/><path d="M-194.400,-513.550 L-74.400,-309.950" fill="none" stroke="#93a8b8" stroke-width=".8" stroke-dasharray="2 3"/><circle cx="-194.39999999999998" cy="-518.55" r="3" fill="#b5c2cc"/><text x="-74.39999999999998" y="-312.95000000000005" text-anchor="middle" font-size="12" fill="#21384a" font-family="system-ui,sans-serif">Live dashboard</text></g><g data-entity="ops-eventhouse"><title>Telemetry store</title><polygon points="-201.600,-73.900 -139.200,-41.400 -139.200,-19.800 -201.600,-52.300" fill="#6b798a" stroke="#717f92" stroke-width="1.2"/><polygon points="-76.800,-73.900 -76.800,-52.300 -139.200,-19.800 -139.200,-41.400" fill="#7c8ca0" stroke="#717f92" stroke-width="1.2"/><polygon points="-139.200,-106.400 -76.800,-73.900 -139.200,-41.400 -201.600,-73.900" fill="#d1d9e2" stroke="#717f92" stroke-width="1.2"/><path d="M-139.200,-110.400 L-75.200,3.200" fill="none" stroke="#93a8b8" stroke-width=".8" stroke-dasharray="2 3"/><circle cx="-139.2" cy="-115.4" r="3" fill="#b5c2cc"/><text x="-75.19999999999999" y="0.19999999999998863" text-anchor="middle" font-size="12" fill="#21384a" font-family="system-ui,sans-serif">Telemetry store</text></g><g data-entity="sensor-stream"><title>Sensor stream</title><polygon points="-201.600,-198.700 -139.200,-166.200 -139.200,-144.600 -201.600,-177.100" fill="#5c808c" stroke="#618793" stroke-width="1.2"/><polygon points="-76.800,-198.700 -76.800,-177.100 -139.200,-144.600 -139.200,-166.200" fill="#6a95a2" stroke="#618793" stroke-width="1.2"/><polygon points="-139.200,-231.200 -76.800,-198.700 -139.200,-166.200 -201.600,-198.700" fill="#c9dde3" stroke="#618793" stroke-width="1.2"/><path d="M-139.200,-235.200 L-75.200,-121.600" fill="none" stroke="#93a8b8" stroke-width=".8" stroke-dasharray="2 3"/><circle cx="-139.2" cy="-240.20000000000005" r="3" fill="#b5c2cc"/><text x="-75.19999999999999" y="-124.60000000000002" text-anchor="middle" font-size="12" fill="#21384a" font-family="system-ui,sans-serif">Sensor stream</text></g><g data-entity="operators"><title>Operators</title><polygon points="-201.600,-573.100 -139.200,-540.600 -139.200,-519.000 -201.600,-551.500" fill="#956c54" stroke="#9d7258" stroke-width="1.2"/><polygon points="-76.800,-573.100 -76.800,-551.500 -139.200,-519.000 -139.200,-540.600" fill="#ac7d61" stroke="#9d7258" stroke-width="1.2"/><polygon points="-139.200,-605.600 -76.800,-573.100 -139.200,-540.600 -201.600,-573.100" fill="#e7d2c5" stroke="#9d7258" stroke-width="1.2"/><path d="M-139.200,-609.600 L-19.200,-586.000" fill="none" stroke="#93a8b8" stroke-width=".8" stroke-dasharray="2 3"/><circle cx="-139.2" cy="-614.5999999999999" r="3" fill="#b5c2cc"/><text x="-19.19999999999999" y="-589" text-anchor="middle" font-size="12" fill="#21384a" font-family="system-ui,sans-serif">Operators</text></g><g data-entity="ops-alert"><title>Threshold alert</title><polygon points="-146.400,-419.550 -84.000,-387.050 -84.000,-365.450 -146.400,-397.950" fill="#9f5f47" stroke="#a7644b" stroke-width="1.2"/><polygon points="-21.600,-419.550 -21.600,-397.950 -84.000,-365.450 -84.000,-387.050" fill="#b86e53" stroke="#a7644b" stroke-width="1.2"/><polygon points="-84.000,-452.050 -21.600,-419.550 -84.000,-387.050 -146.400,-419.550" fill="#edcbbf" stroke="#a7644b" stroke-width="1.2"/><path d="" fill="none" stroke="#93a8b8" stroke-width=".8" stroke-dasharray="2 3"/><circle cx="-84" cy="-461.04999999999995" r="3" fill="#b5c2cc"/><text x="-84" y="-345.45000000000005" text-anchor="middle" font-size="12" fill="#21384a" font-family="system-ui,sans-serif">Threshold alert</text></g><g data-entity="sales-lakehouse"><title>Sales lakehouse</title><polygon points="-396.000,-30.150 -333.600,2.350 -333.600,23.950 -396.000,-8.550" fill="#99755b" stroke="#a17b60" stroke-width="1.2"/><polygon points="-271.200,-30.150 -271.200,-8.550 -333.600,23.950 -333.600,2.350" fill="#b1886a" stroke="#a17b60" stroke-width="1.2"/><polygon points="-333.600,-62.650 -271.200,-30.150 -333.600,2.350 -396.000,-30.150" fill="#e9d7c9" stroke="#a17b60" stroke-width="1.2"/><path d="M-333.600,-66.650 L-213.600,136.950" fill="none" stroke="#93a8b8" stroke-width=".8" stroke-dasharray="2 3"/><circle cx="-333.59999999999997" cy="-71.65000000000002" r="3" fill="#b5c2cc"/><text x="-213.59999999999997" y="133.95" text-anchor="middle" font-size="12" fill="#21384a" font-family="system-ui,sans-serif">Sales lakehouse</text></g><g data-entity="ingest-pipeline"><title>Nightly copy</title><polygon points="-396.000,-154.950 -333.600,-122.450 -333.600,-100.850 -396.000,-133.350" fill="#76868c" stroke="#7c8d93" stroke-width="1.2"/><polygon points="-271.200,-154.950 -271.200,-133.350 -333.600,-100.850 -333.600,-122.450" fill="#889ba2" stroke="#7c8d93" stroke-width="1.2"/><polygon points="-333.600,-187.450 -271.200,-154.950 -333.600,-122.450 -396.000,-154.950" fill="#d7dfe3" stroke="#7c8d93" stroke-width="1.2"/><path d="M-333.600,-191.450 L-365.600,-77.850" fill="none" stroke="#93a8b8" stroke-width=".8" stroke-dasharray="2 3"/><circle cx="-333.59999999999997" cy="-196.45000000000005" r="3" fill="#b5c2cc"/><text x="-365.59999999999997" y="-80.85000000000002" text-anchor="middle" font-size="12" fill="#21384a" font-family="system-ui,sans-serif">Nightly copy</text></g><g data-entity="sales-model"><title>Sales model</title><polygon points="-340.800,-251.000 -278.400,-218.500 -278.400,-196.900 -340.800,-229.400" fill="#997e48" stroke="#a1854c" stroke-width="1.2"/><polygon points="-216.000,-251.000 -216.000,-229.400 -278.400,-196.900 -278.400,-218.500" fill="#b19254" stroke="#a1854c" stroke-width="1.2"/><polygon points="-278.400,-283.500 -216.000,-251.000 -278.400,-218.500 -340.800,-251.000" fill="#e9dbbf" stroke="#a1854c" stroke-width="1.2"/><path d="M-278.400,-287.500 L-158.400,-263.900" fill="none" stroke="#93a8b8" stroke-width=".8" stroke-dasharray="2 3"/><circle cx="-278.4" cy="-292.5" r="3" fill="#b5c2cc"/><text x="-158.39999999999998" y="-266.90000000000003" text-anchor="middle" font-size="12" fill="#21384a" font-family="system-ui,sans-serif">Sales model</text></g><g data-entity="sales-report"><title>Revenue report</title><polygon points="-340.800,-375.800 -278.400,-343.300 -278.400,-321.700 -340.800,-354.200" fill="#546772" stroke="#596c78" stroke-width="1.2"/><polygon points="-216.000,-375.800 -216.000,-354.200 -278.400,-321.700 -278.400,-343.300" fill="#627784" stroke="#596c78" stroke-width="1.2"/><polygon points="-278.400,-408.300 -216.000,-375.800 -278.400,-343.300 -340.800,-375.800" fill="#c5cfd5" stroke="#596c78" stroke-width="1.2"/><path d="" fill="none" stroke="#93a8b8" stroke-width=".8" stroke-dasharray="2 3"/><circle cx="-278.4" cy="-417.29999999999995" r="3" fill="#b5c2cc"/><text x="-278.4" y="-301.70000000000005" text-anchor="middle" font-size="12" fill="#21384a" font-family="system-ui,sans-serif">Revenue report</text></g><g data-entity="analysts"><title>Analysts</title><polygon points="-340.800,-500.600 -278.400,-468.100 -278.400,-446.500 -340.800,-479.000" fill="#956c54" stroke="#9d7258" stroke-width="1.2"/><polygon points="-216.000,-500.600 -216.000,-479.000 -278.400,-446.500 -278.400,-468.100" fill="#ac7d61" stroke="#9d7258" stroke-width="1.2"/><polygon points="-278.400,-533.100 -216.000,-500.600 -278.400,-468.100 -340.800,-500.600" fill="#e7d2c5" stroke="#9d7258" stroke-width="1.2"/><path d="M-278.400,-537.100 L-310.400,-423.500" fill="none" stroke="#93a8b8" stroke-width=".8" stroke-dasharray="2 3"/><circle cx="-278.4" cy="-542.0999999999999" r="3" fill="#b5c2cc"/><text x="-310.4" y="-426.5" text-anchor="middle" font-size="12" fill="#21384a" font-family="system-ui,sans-serif">Analysts</text></g><g data-entity="sales-warehouse"><title>Sales warehouse</title><polygon points="-285.600,27.350 -223.200,59.850 -223.200,81.450 -285.600,48.950" fill="#8d7d69" stroke="#94846e" stroke-width="1.2"/><polygon points="-160.800,27.350 -160.800,48.950 -223.200,81.450 -223.200,59.850" fill="#a39179" stroke="#94846e" stroke-width="1.2"/><polygon points="-223.200,-5.150 -160.800,27.350 -223.200,59.850 -285.600,27.350" fill="#e3dbd0" stroke="#94846e" stroke-width="1.2"/><path d="M-223.200,-9.150 L-223.200,170.450" fill="none" stroke="#93a8b8" stroke-width=".8" stroke-dasharray="2 3"/><circle cx="-223.20000000000002" cy="-14.150000000000006" r="3" fill="#b5c2cc"/><text x="-223.20000000000002" y="167.45" text-anchor="middle" font-size="12" fill="#21384a" font-family="system-ui,sans-serif">Sales warehouse</text></g><g data-entity="clean-notebook"><title>Cleaning notebook</title><polygon points="-285.600,-97.450 -223.200,-64.950 -223.200,-43.350 -285.600,-75.850" fill="#b3aea0" stroke="#bdb7a9" stroke-width="1.2"/><polygon points="-160.800,-97.450 -160.800,-75.850 -223.200,-43.350 -223.200,-64.950" fill="#d0caba" stroke="#bdb7a9" stroke-width="1.2"/><polygon points="-223.200,-129.950 -160.800,-97.450 -223.200,-64.950 -285.600,-97.450" fill="#f7f5ed" stroke="#bdb7a9" stroke-width="1.2"/><path d="M-223.200,-133.950 L-223.200,111.650" fill="none" stroke="#93a8b8" stroke-width=".8" stroke-dasharray="2 3"/><circle cx="-223.20000000000002" cy="-138.95000000000005" r="3" fill="#b5c2cc"/><text x="-223.20000000000002" y="108.64999999999998" text-anchor="middle" font-size="12" fill="#21384a" font-family="system-ui,sans-serif">Cleaning notebook</text></g><g data-entity="erp-db"><title>ERP database</title><polygon points="-535.200,42.350 -472.800,74.850 -472.800,96.450 -535.200,63.950" fill="#757d83" stroke="#7b848a" stroke-width="1.2"/><polygon points="-410.400,42.350 -410.400,63.950 -472.800,96.450 -472.800,74.850" fill="#889198" stroke="#7b848a" stroke-width="1.2"/><polygon points="-472.800,9.850 -410.400,42.350 -472.800,74.850 -535.200,42.350" fill="#d7dbde" stroke="#7b848a" stroke-width="1.2"/><path d="M-472.800,5.850 L-504.800,119.450" fill="none" stroke="#93a8b8" stroke-width=".8" stroke-dasharray="2 3"/><circle cx="-472.79999999999995" cy="0.8499999999999659" r="3" fill="#b5c2cc"/><text x="-504.79999999999995" y="116.44999999999999" text-anchor="middle" font-size="12" fill="#21384a" font-family="system-ui,sans-serif">ERP database</text></g><g data-entity="sensor-fleet"><title>Plant sensors</title><polygon points="-424.800,99.850 -362.400,132.350 -362.400,153.950 -424.800,121.450" fill="#737c75" stroke="#79827b" stroke-width="1.2"/><polygon points="-300.000,99.850 -300.000,121.450 -362.400,153.950 -362.400,132.350" fill="#858f88" stroke="#79827b" stroke-width="1.2"/><polygon points="-362.400,67.350 -300.000,99.850 -362.400,132.350 -424.800,99.850" fill="#d5dad7" stroke="#79827b" stroke-width="1.2"/><path d="" fill="none" stroke="#93a8b8" stroke-width=".8" stroke-dasharray="2 3"/><circle cx="-362.4" cy="58.349999999999966" r="3" fill="#b5c2cc"/><text x="-362.4" y="173.94999999999993" text-anchor="middle" font-size="12" fill="#21384a" font-family="system-ui,sans-serif">Plant sensors</text></g><text x="-776.8" y="335.3" font-size="10" font-family="system-ui,sans-serif" fill="#647889">SYNTHETIC / 1 of 1 / isometric / target snapshot</text></svg>
